# xmcd
#
# Track frame offsets:
#	150
#	18857
#	35607
#	51739
#	69057
#	87612
#	109880
#	128117
#	144849
#	163973
#	176122
#	193898
#	211407
#	229496
#	246163
#	264814
#
# Disc length: 3779 seconds
#
# Revision: 0
# Processed by: cddbd v1.5.2PL0 Copyright (c) Steve Scherf et al.
# Submitted via: audiograbber 1.83.01
#
DISCID=ed0ec110
DTITLE=Various Artist - Pure Dance Party-cd2 (16 track version)
DYEAR=1900
DGENRE=
TTITLE0=Shaggy - Boombastic
TTITLE1=Ub40 - If It Happens Again
TTITLE2=Maxi Priest - Some Guys Have All The Luck
TTITLE3=Pato Banton and Robin Campbell - Baby Come Back
TTITLE4=Arrested Development - People Everyday
TTITLE5=Jesus Loves You - Generations Of Love
TTITLE6=Tin Tin Out Feat Shelley Nelson - Heres Where The Story Ends
TTITLE7=Vanilla Ice - Ice Ice Baby
TTITLE8=M C Hammer - U Cant Touch This
TTITLE9=The Beat - The Tears Of A Clown
TTITLE10=Boy George - Everything I Own
TTITLE11=Althea And Donna - Uptown Top Ranking
TTITLE12=Redhead Kingpin - Do The Right Thing
TTITLE13=Deja - Thats Where Youll Find Me
TTITLE14=Black Britain - Funky Nassau
TTITLE15=Carleen Anderson - Mama Said
EXTD=Addendum for the CD as the first song was missing and the rest moved up on
EXTD=e place.
EXTT0=
EXTT1=
EXTT2=
EXTT3=
EXTT4=
EXTT5=
EXTT6=
EXTT7=
EXTT8=
EXTT9=
EXTT10=
EXTT11=
EXTT12=
EXTT13=
EXTT14=
EXTT15=
PLAYORDER=
